# xmcd
# Copyright (C) 1995-1998 Ti Kan
#
# Track frame offsets:
#       150
#       22291
#       43081
#       54397
#       67963
#       78718
#       91443
#       116268
#       129408
#       141727
#       165518
#       186901
#
# Disc length: 2702 seconds
#
# Revision: 0
# Processed by: cddbd v1.5.2PL0 Copyright (c) Steve Scherf et al.
# Submitted via: CD-Import v1.0
#
DISCID=ab0a8c0c
DTITLE=Flanger - Spirituals
DYEAR=2006
DGENRE=
TTITLE0=Funeral March
TTITLE1=Crime In The Pale Moonlight
TTITLE2=How Long Is The Wrong Way
TTITLE3=Down The River
TTITLE4=Music Is Our Secret Code
TTITLE5=Tiny Tina
TTITLE6=Hope To Hear Back Soon, Honey
TTITLE7=Peninsula
TTITLE8=In My Car (Single Version)
TTITLE9=In My Car (Bolt Mix)
TTITLE10=How Long Is The Wrong Way (Extended)
TTITLE11=Crime In The Pale Moonlight (Short Version)
EXTD=
EXTT0=
EXTT1=
EXTT2=
EXTT3=
EXTT4=
EXTT5=
EXTT6=
EXTT7=
EXTT8=
EXTT9=
EXTT10=
EXTT11=
PLAYORDER=
